<svg xmlns="http://www.w3.org/2000/svg" viewBox="0 0 1200 300">
  <defs>
    <mask id="vmask">
      <rect width="1200" height="300" fill="white"/>
      <path d="M558 72 L600 190 L643 72 L625 72 L600 163 L575 72 Z" fill="black" stroke="black" stroke-width="10" stroke-linejoin="miter"/>
    </mask>
  </defs>

  <!-- transparent background -->

  <!-- Matrix rain: ~40 columns of falling drops, random 0/1 digits, fading tail to bright head -->
  <g font-family="'Courier New',monospace" font-size="12">
    <!-- Col 1 (x=15) head_y=69 len=13 -->
    <text x="15" y="13" fill="#5b5b5b">1</text><text x="15" y="27" fill="#484848">1</text><text x="15" y="41" fill="#363636">0</text><text x="15" y="55" fill="#232323">0</text><text x="15" y="69" fill="#111111">0</text>
    <!-- Col 2 (x=45) head_y=54 len=8 -->
    <text x="45" y="12" fill="#707070">0</text><text x="45" y="26" fill="#505050">1</text><text x="45" y="40" fill="#313131">1</text><text x="45" y="54" fill="#111111">1</text>
    <!-- Col 3 (x=75) head_y=59 len=7 -->
    <text x="75" y="17" fill="#7f7f7f">0</text><text x="75" y="31" fill="#5b5b5b">0</text><text x="75" y="45" fill="#363636">1</text><text x="75" y="59" fill="#111111">1</text>
    <!-- Col 4 (x=105) head_y=166 len=14 -->
    <text x="105" y="12" fill="#cccccc">0</text><text x="105" y="26" fill="#bbbbbb">1</text><text x="105" y="40" fill="#aaaaaa">1</text><text x="105" y="54" fill="#999999">1</text><text x="105" y="68" fill="#888888">1</text><text x="105" y="82" fill="#777777">0</text><text x="105" y="96" fill="#666666">1</text><text x="105" y="110" fill="#555555">1</text><text x="105" y="124" fill="#444444">0</text><text x="105" y="138" fill="#333333">1</text><text x="105" y="152" fill="#222222">1</text><text x="105" y="166" fill="#111111">1</text>
    <!-- Col 5 (x=135) head_y=98 len=14 -->
    <text x="135" y="14" fill="#777777">1</text><text x="135" y="28" fill="#666666">0</text><text x="135" y="42" fill="#555555">1</text><text x="135" y="56" fill="#444444">0</text><text x="135" y="70" fill="#333333">0</text><text x="135" y="84" fill="#222222">0</text><text x="135" y="98" fill="#111111">1</text>
    <!-- Col 6 (x=165) head_y=146 len=6 -->
    <text x="165" y="76" fill="#eeeeee">1</text><text x="165" y="90" fill="#c2c2c2">1</text><text x="165" y="104" fill="#969696">0</text><text x="165" y="118" fill="#696969">1</text><text x="165" y="132" fill="#3d3d3d">0</text><text x="165" y="146" fill="#111111">1</text>
    <!-- Col 7 (x=195) head_y=178 len=8 -->
    <text x="195" y="80" fill="#eeeeee">0</text><text x="195" y="94" fill="#cecece">1</text><text x="195" y="108" fill="#afafaf">1</text><text x="195" y="122" fill="#8f8f8f">0</text><text x="195" y="136" fill="#707070">0</text><text x="195" y="150" fill="#505050">0</text><text x="195" y="164" fill="#313131">1</text><text x="195" y="178" fill="#111111">1</text>
    <!-- Col 8 (x=225) head_y=252 len=5 -->
    <text x="225" y="196" fill="#eeeeee">0</text><text x="225" y="210" fill="#b7b7b7">0</text><text x="225" y="224" fill="#7f7f7f">1</text><text x="225" y="238" fill="#484848">1</text><text x="225" y="252" fill="#111111">1</text>
    <!-- Col 9 (x=255) head_y=262 len=15 -->
    <text x="255" y="66" fill="#eeeeee">0</text><text x="255" y="80" fill="#dedede">1</text><text x="255" y="94" fill="#cecece">0</text><text x="255" y="108" fill="#bfbfbf">0</text><text x="255" y="122" fill="#afafaf">1</text><text x="255" y="136" fill="#9f9f9f">1</text><text x="255" y="150" fill="#8f8f8f">0</text><text x="255" y="164" fill="#7f7f7f">1</text><text x="255" y="178" fill="#707070">0</text><text x="255" y="192" fill="#606060">1</text><text x="255" y="206" fill="#505050">1</text><text x="255" y="220" fill="#404040">1</text><text x="255" y="234" fill="#313131">1</text><text x="255" y="248" fill="#212121">1</text><text x="255" y="262" fill="#111111">1</text>
    <!-- Col 10 (x=285) head_y=229 len=6 -->
    <text x="285" y="159" fill="#eeeeee">1</text><text x="285" y="173" fill="#c2c2c2">0</text><text x="285" y="187" fill="#969696">1</text><text x="285" y="201" fill="#696969">1</text><text x="285" y="215" fill="#3d3d3d">0</text><text x="285" y="229" fill="#111111">1</text>
    <!-- Col 11 (x=315) head_y=191 len=12 -->
    <text x="315" y="37" fill="#eeeeee">1</text><text x="315" y="51" fill="#dadada">0</text><text x="315" y="65" fill="#c6c6c6">1</text><text x="315" y="79" fill="#b2b2b2">0</text><text x="315" y="93" fill="#9e9e9e">1</text><text x="315" y="107" fill="#8a8a8a">1</text><text x="315" y="121" fill="#757575">1</text><text x="315" y="135" fill="#616161">0</text><text x="315" y="149" fill="#4d4d4d">0</text><text x="315" y="163" fill="#393939">1</text><text x="315" y="177" fill="#252525">1</text><text x="315" y="191" fill="#111111">0</text>
    <!-- Col 12 (x=345) head_y=208 len=12 -->
    <text x="345" y="54" fill="#eeeeee">0</text><text x="345" y="68" fill="#dadada">1</text><text x="345" y="82" fill="#c6c6c6">1</text><text x="345" y="96" fill="#b2b2b2">0</text><text x="345" y="110" fill="#9e9e9e">1</text><text x="345" y="124" fill="#8a8a8a">1</text><text x="345" y="138" fill="#757575">1</text><text x="345" y="152" fill="#616161">0</text><text x="345" y="166" fill="#4d4d4d">1</text><text x="345" y="180" fill="#393939">1</text><text x="345" y="194" fill="#252525">0</text><text x="345" y="208" fill="#111111">0</text>
    <!-- Col 13 (x=375) head_y=73 len=7 -->
    <text x="375" y="17" fill="#a4a4a4">1</text><text x="375" y="31" fill="#7f7f7f">1</text><text x="375" y="45" fill="#5b5b5b">1</text><text x="375" y="59" fill="#363636">1</text><text x="375" y="73" fill="#111111">1</text>
    <!-- Col 14 (x=405) head_y=151 len=5 -->
    <text x="405" y="95" fill="#eeeeee">1</text><text x="405" y="109" fill="#b7b7b7">1</text><text x="405" y="123" fill="#7f7f7f">1</text><text x="405" y="137" fill="#484848">1</text><text x="405" y="151" fill="#111111">1</text>
    <!-- Col 15 (x=435) head_y=188 len=11 -->
    <text x="435" y="48" fill="#eeeeee">0</text><text x="435" y="62" fill="#d8d8d8">0</text><text x="435" y="76" fill="#c2c2c2">1</text><text x="435" y="90" fill="#acacac">1</text><text x="435" y="104" fill="#969696">1</text><text x="435" y="118" fill="#7f7f7f">1</text><text x="435" y="132" fill="#696969">1</text><text x="435" y="146" fill="#535353">1</text><text x="435" y="160" fill="#3d3d3d">0</text><text x="435" y="174" fill="#272727">1</text><text x="435" y="188" fill="#111111">0</text>
    <!-- Col 16 (x=465) head_y=89 len=9 -->
    <text x="465" y="5" fill="#b7b7b7">0</text><text x="465" y="19" fill="#9b9b9b">1</text><text x="465" y="33" fill="#7f7f7f">1</text><text x="465" y="47" fill="#646464">1</text><text x="465" y="61" fill="#484848">0</text><text x="465" y="75" fill="#2d2d2d">0</text><text x="465" y="89" fill="#111111">0</text>
    <!-- Col 17 (x=495) head_y=277 len=12 -->
    <text x="495" y="123" fill="#eeeeee">1</text><text x="495" y="137" fill="#dadada">1</text><text x="495" y="151" fill="#c6c6c6">0</text><text x="495" y="165" fill="#b2b2b2">1</text><text x="495" y="179" fill="#9e9e9e">1</text><text x="495" y="193" fill="#8a8a8a">1</text><text x="495" y="207" fill="#757575">0</text><text x="495" y="221" fill="#616161">1</text><text x="495" y="235" fill="#4d4d4d">1</text><text x="495" y="249" fill="#393939">0</text><text x="495" y="263" fill="#252525">1</text><text x="495" y="277" fill="#111111">1</text>
    <!-- Col 18 (x=525) head_y=62 len=10 -->
    <text x="525" y="6" fill="#737373">0</text><text x="525" y="20" fill="#5b5b5b">1</text><text x="525" y="34" fill="#424242">0</text><text x="525" y="48" fill="#2a2a2a">1</text><text x="525" y="62" fill="#111111">0</text>
    <!-- Col 19 (x=585) head_y=76 len=10 -->
    <text x="585" y="6" fill="#8c8c8c">0</text><text x="585" y="20" fill="#737373">0</text><text x="585" y="34" fill="#5b5b5b">1</text><text x="585" y="48" fill="#424242">1</text><text x="585" y="62" fill="#2a2a2a">1</text><text x="585" y="76" fill="#111111">1</text>
    <!-- Col 20 (x=645) head_y=126 len=6 -->
    <text x="645" y="56" fill="#eeeeee">1</text><text x="645" y="70" fill="#c2c2c2">0</text><text x="645" y="84" fill="#969696">1</text><text x="645" y="98" fill="#696969">1</text><text x="645" y="112" fill="#3d3d3d">0</text><text x="645" y="126" fill="#111111">1</text>
    <!-- Col 21 (x=705) head_y=140 len=8 -->
    <text x="705" y="42" fill="#eeeeee">1</text><text x="705" y="56" fill="#cecece">1</text><text x="705" y="70" fill="#afafaf">0</text><text x="705" y="84" fill="#8f8f8f">1</text><text x="705" y="98" fill="#707070">1</text><text x="705" y="112" fill="#505050">0</text><text x="705" y="126" fill="#313131">1</text><text x="705" y="140" fill="#111111">1</text>
    <!-- Col 22 (x=735) head_y=97 len=10 -->
    <text x="735" y="13" fill="#a4a4a4">0</text><text x="735" y="27" fill="#8c8c8c">1</text><text x="735" y="41" fill="#737373">1</text><text x="735" y="55" fill="#5b5b5b">0</text><text x="735" y="69" fill="#424242">0</text><text x="735" y="83" fill="#2a2a2a">1</text><text x="735" y="97" fill="#111111">1</text>
    <!-- Col 23 (x=765) head_y=172 len=6 -->
    <text x="765" y="102" fill="#eeeeee">1</text><text x="765" y="116" fill="#c2c2c2">1</text><text x="765" y="130" fill="#969696">0</text><text x="765" y="144" fill="#696969">1</text><text x="765" y="158" fill="#3d3d3d">0</text><text x="765" y="172" fill="#111111">1</text>
    <!-- Col 24 (x=795) head_y=111 len=6 -->
    <text x="795" y="41" fill="#eeeeee">1</text><text x="795" y="55" fill="#c2c2c2">1</text><text x="795" y="69" fill="#969696">1</text><text x="795" y="83" fill="#696969">1</text><text x="795" y="97" fill="#3d3d3d">1</text><text x="795" y="111" fill="#111111">0</text>
    <!-- Col 25 (x=825) head_y=166 len=15 -->
    <text x="825" y="12" fill="#bfbfbf">1</text><text x="825" y="26" fill="#afafaf">1</text><text x="825" y="40" fill="#9f9f9f">1</text><text x="825" y="54" fill="#8f8f8f">1</text><text x="825" y="68" fill="#7f7f7f">0</text><text x="825" y="82" fill="#707070">1</text><text x="825" y="96" fill="#606060">0</text><text x="825" y="110" fill="#505050">1</text><text x="825" y="124" fill="#404040">1</text><text x="825" y="138" fill="#313131">0</text><text x="825" y="152" fill="#212121">1</text><text x="825" y="166" fill="#111111">1</text>
    <!-- Col 26 (x=855) head_y=249 len=12 -->
    <text x="855" y="95" fill="#eeeeee">1</text><text x="855" y="109" fill="#dadada">0</text><text x="855" y="123" fill="#c6c6c6">1</text><text x="855" y="137" fill="#b2b2b2">1</text><text x="855" y="151" fill="#9e9e9e">0</text><text x="855" y="165" fill="#8a8a8a">0</text><text x="855" y="179" fill="#757575">1</text><text x="855" y="193" fill="#616161">1</text><text x="855" y="207" fill="#4d4d4d">1</text><text x="855" y="221" fill="#393939">1</text><text x="855" y="235" fill="#252525">1</text><text x="855" y="249" fill="#111111">1</text>
    <!-- Col 27 (x=885) head_y=132 len=15 -->
    <text x="885" y="6" fill="#9f9f9f">1</text><text x="885" y="20" fill="#8f8f8f">1</text><text x="885" y="34" fill="#7f7f7f">0</text><text x="885" y="48" fill="#707070">1</text><text x="885" y="62" fill="#606060">1</text><text x="885" y="76" fill="#505050">1</text><text x="885" y="90" fill="#404040">1</text><text x="885" y="104" fill="#313131">1</text><text x="885" y="118" fill="#212121">0</text><text x="885" y="132" fill="#111111">0</text>
    <!-- Col 28 (x=915) head_y=277 len=11 -->
    <text x="915" y="137" fill="#eeeeee">1</text><text x="915" y="151" fill="#d8d8d8">1</text><text x="915" y="165" fill="#c2c2c2">1</text><text x="915" y="179" fill="#acacac">1</text><text x="915" y="193" fill="#969696">1</text><text x="915" y="207" fill="#7f7f7f">0</text><text x="915" y="221" fill="#696969">1</text><text x="915" y="235" fill="#535353">0</text><text x="915" y="249" fill="#3d3d3d">0</text><text x="915" y="263" fill="#272727">0</text><text x="915" y="277" fill="#111111">1</text>
    <!-- Col 29 (x=945) head_y=52 len=9 -->
    <text x="945" y="10" fill="#646464">0</text><text x="945" y="24" fill="#484848">0</text><text x="945" y="38" fill="#2d2d2d">0</text><text x="945" y="52" fill="#111111">1</text>
    <!-- Col 30 (x=975) head_y=113 len=14 -->
    <text x="975" y="15" fill="#888888">1</text><text x="975" y="29" fill="#777777">1</text><text x="975" y="43" fill="#666666">1</text><text x="975" y="57" fill="#555555">0</text><text x="975" y="71" fill="#444444">0</text><text x="975" y="85" fill="#333333">0</text><text x="975" y="99" fill="#222222">0</text><text x="975" y="113" fill="#111111">1</text>
    <!-- Col 31 (x=1005) head_y=143 len=9 -->
    <text x="1005" y="31" fill="#eeeeee">0</text><text x="1005" y="45" fill="#d2d2d2">1</text><text x="1005" y="59" fill="#b7b7b7">1</text><text x="1005" y="73" fill="#9b9b9b">1</text><text x="1005" y="87" fill="#7f7f7f">1</text><text x="1005" y="101" fill="#646464">1</text><text x="1005" y="115" fill="#484848">0</text><text x="1005" y="129" fill="#2d2d2d">1</text><text x="1005" y="143" fill="#111111">1</text>
    <!-- Col 32 (x=1035) head_y=203 len=8 -->
    <text x="1035" y="105" fill="#eeeeee">1</text><text x="1035" y="119" fill="#cecece">1</text><text x="1035" y="133" fill="#afafaf">1</text><text x="1035" y="147" fill="#8f8f8f">1</text><text x="1035" y="161" fill="#707070">0</text><text x="1035" y="175" fill="#505050">1</text><text x="1035" y="189" fill="#313131">1</text><text x="1035" y="203" fill="#111111">1</text>
    <!-- Col 33 (x=1065) head_y=85 len=6 -->
    <text x="1065" y="15" fill="#eeeeee">1</text><text x="1065" y="29" fill="#c2c2c2">0</text><text x="1065" y="43" fill="#969696">1</text><text x="1065" y="57" fill="#696969">1</text><text x="1065" y="71" fill="#3d3d3d">1</text><text x="1065" y="85" fill="#111111">1</text>
    <!-- Col 34 (x=1095) head_y=75 len=5 -->
    <text x="1095" y="19" fill="#eeeeee">1</text><text x="1095" y="33" fill="#b7b7b7">1</text><text x="1095" y="47" fill="#7f7f7f">1</text><text x="1095" y="61" fill="#484848">1</text><text x="1095" y="75" fill="#111111">0</text>
    <!-- Col 35 (x=1125) head_y=197 len=8 -->
    <text x="1125" y="99" fill="#eeeeee">0</text><text x="1125" y="113" fill="#cecece">1</text><text x="1125" y="127" fill="#afafaf">1</text><text x="1125" y="141" fill="#8f8f8f">1</text><text x="1125" y="155" fill="#707070">1</text><text x="1125" y="169" fill="#505050">0</text><text x="1125" y="183" fill="#313131">1</text><text x="1125" y="197" fill="#111111">1</text>
    <!-- Col 36 (x=1155) head_y=208 len=6 -->
    <text x="1155" y="138" fill="#eeeeee">1</text><text x="1155" y="152" fill="#c2c2c2">1</text><text x="1155" y="166" fill="#969696">0</text><text x="1155" y="180" fill="#696969">1</text><text x="1155" y="194" fill="#3d3d3d">0</text><text x="1155" y="208" fill="#111111">1</text>
    <!-- Col 37 (x=1185) head_y=214 len=9 -->
    <text x="1185" y="102" fill="#eeeeee">1</text><text x="1185" y="116" fill="#d2d2d2">1</text><text x="1185" y="130" fill="#b7b7b7">0</text><text x="1185" y="144" fill="#9b9b9b">0</text><text x="1185" y="158" fill="#7f7f7f">1</text><text x="1185" y="172" fill="#646464">0</text><text x="1185" y="186" fill="#484848">1</text><text x="1185" y="200" fill="#2d2d2d">1</text><text x="1185" y="214" fill="#111111">0</text>
  </g>

  <!-- DB cylinder masked by V -->
  <!-- DB cylinder: width 110, height ~110 to match icon.svg proportions -->
  <g fill="none" stroke="#1f2328" stroke-width="3" mask="url(#vmask)">
    <ellipse cx="600" cy="95" rx="55" ry="18"/>
    <path d="M545 95v95c0 9.9 24.6 18 55 18s55-8.1 55-18V95"/>
    <path d="M545 143c0 9.9 24.6 18 55 18s55-8.1 55-18"/>
  </g>

  <!-- Hollow V — exact proportional copy from icon.svg -->
  <path d="M558 72 L600 190 L643 72 L625 72 L600 163 L575 72 Z" fill="none" stroke="#1f2328" stroke-width="3" stroke-linejoin="miter"/>

  <!-- Title -->
  <text x="600" y="282" text-anchor="middle" font-family="system-ui,-apple-system,sans-serif" font-size="16" font-weight="300" fill="#57606a" letter-spacing="10">VIEWSTOR</text>
</svg>
